<?xml version="1.0" encoding="UTF-8"?>
<svg xmlns="http://www.w3.org/2000/svg" xmlns:xlink="http://www.w3.org/1999/xlink" viewBox="0 0 50 50" width="50px" height="50px">
<g id="surface7162436">
<path style=" stroke:none;fill-rule:nonzero;fill:rgb(100%,98.431373%,98.431373%);fill-opacity:1;" d="M 25 50 C 11.191406 50 0 38.808594 0 25 C 0 11.191406 11.191406 0 25 0 C 38.808594 0 50 11.191406 50 25 C 50 38.808594 38.808594 50 25 50 Z M 25 50 "/>
<path style=" stroke:none;fill-rule:nonzero;fill:rgb(0%,0%,0%);fill-opacity:1;" d="M 25 6.601562 C 14.847656 6.601562 6.601562 14.847656 6.601562 25 C 6.601562 35.152344 14.847656 43.398438 25 43.398438 C 35.152344 43.398438 43.398438 35.152344 43.398438 25 C 43.398438 14.847656 35.152344 6.601562 25 6.601562 Z M 25 8.199219 C 34.289062 8.199219 41.800781 15.710938 41.800781 25 C 41.800781 34.289062 34.289062 41.800781 25 41.800781 C 15.710938 41.800781 8.199219 34.289062 8.199219 25 C 8.199219 15.710938 15.710938 8.199219 25 8.199219 Z M 17.800781 14.601562 C 16.484375 14.601562 15.398438 15.683594 15.398438 17 C 15.398438 18.316406 16.484375 19.398438 17.800781 19.398438 C 19.117188 19.398438 20.199219 18.316406 20.199219 17 C 20.199219 15.683594 19.117188 14.601562 17.800781 14.601562 Z M 17.800781 16.199219 C 18.25 16.199219 18.601562 16.546875 18.601562 17 C 18.601562 17.453125 18.25 17.800781 17.800781 17.800781 C 17.347656 17.800781 17 17.453125 17 17 C 17 16.546875 17.347656 16.199219 17.800781 16.199219 Z M 16.199219 20.199219 C 15.757812 20.199219 15.398438 20.558594 15.398438 21 L 15.398438 33 C 15.398438 33.441406 15.757812 33.800781 16.199219 33.800781 L 19.398438 33.800781 C 19.84375 33.800781 20.199219 33.441406 20.199219 33 L 20.199219 21 C 20.199219 20.558594 19.84375 20.199219 19.398438 20.199219 Z M 22.601562 20.199219 C 22.15625 20.199219 21.800781 20.558594 21.800781 21 L 21.800781 33 C 21.800781 33.441406 22.15625 33.800781 22.601562 33.800781 L 25.800781 33.800781 C 26.242188 33.800781 26.601562 33.441406 26.601562 33 L 26.601562 27 C 26.601562 25.894531 27.496094 25 28.601562 25 C 29.703125 25 30.601562 25.894531 30.601562 27 L 30.601562 33 C 30.601562 33.441406 30.957031 33.800781 31.398438 33.800781 L 34.601562 33.800781 C 35.042969 33.800781 35.398438 33.441406 35.398438 33 L 35.398438 26.199219 C 35.398438 22.894531 32.703125 20.199219 29.398438 20.199219 C 28.371094 20.199219 27.449219 20.53125 26.601562 20.992188 C 26.59375 20.554688 26.238281 20.199219 25.800781 20.199219 Z M 17 21.800781 L 18.601562 21.800781 L 18.601562 32.199219 L 17 32.199219 Z M 23.398438 21.800781 L 25 21.800781 L 25 22.453125 C 25 22.773438 25.191406 23.0625 25.488281 23.1875 C 25.78125 23.316406 26.125 23.253906 26.355469 23.03125 C 27.148438 22.269531 28.214844 21.800781 29.398438 21.800781 C 31.839844 21.800781 33.800781 23.761719 33.800781 26.199219 L 33.800781 32.199219 L 32.199219 32.199219 L 32.199219 27 C 32.199219 25.023438 30.578125 23.398438 28.601562 23.398438 C 26.625 23.398438 25 25.023438 25 27 L 25 32.199219 L 23.398438 32.199219 Z M 23.398438 21.800781 "/>
</g>
</svg>
